<?xml version="1.0" standalone="no"?>
<!DOCTYPE svg PUBLIC "-//W3C//DTD SVG 20010904//EN"
 "http://www.w3.org/TR/2001/REC-SVG-20010904/DTD/svg10.dtd">
<svg version="1.0" xmlns="http://www.w3.org/2000/svg"
 width="500.000000pt" height="500.000000pt" viewBox="0 0 500.000000 500.000000"
 preserveAspectRatio="xMidYMid meet">
<metadata>
Created by potrace 1.16, written by Peter Selinger 2001-2019
</metadata>
<g transform="translate(0.000000,500.000000) scale(0.100000,-0.100000)"
fill="#000000" stroke="none">
<path d="M2295 4820 c-162 -17 -372 -73 -524 -139 -201 -87 -371 -202 -534
-360 -303 -293 -473 -615 -549 -1041 -21 -122 -16 -458 10 -602 120 -657 592
-1202 1225 -1413 355 -119 797 -118 1157 2 309 102 601 301 806 548 114 136
170 221 245 367 295 578 250 1294 -114 1838 -298 445 -786 741 -1319 799 -107
12 -295 12 -403 1z m499 -125 c150 -27 314 -82 461 -154 479 -235 820 -674
924 -1188 78 -380 32 -753 -134 -1098 -200 -414 -565 -736 -1002 -884 -487
-165 -1048 -94 -1478 187 -491 321 -784 858 -785 1442 -1 616 329 1185 862
1491 202 116 469 202 688 223 91 8 377 -3 464 -19z"/>
<path d="M2460 4675 c-15 -18 -25 -103 -16 -138 6 -26 48 -47 92 -47 21 0 24
-5 24 -40 0 -36 -3 -40 -24 -40 -18 0 -25 6 -28 23 -2 17 -11 23 -35 25 -31 3
-33 2 -33 -30 0 -55 16 -68 87 -71 84 -3 95 9 97 103 1 83 -12 100 -76 100
-38 0 -38 0 -38 40 0 34 3 40 21 40 12 0 23 -8 26 -20 4 -14 14 -20 34 -20 29
0 33 7 29 45 -4 36 -20 45 -85 45 -44 0 -66 -5 -75 -15z"/>
<path d="M2240 4673 c-42 -7 -78 -24 -85 -41 -9 -24 37 -294 52 -299 7 -3 24
-2 37 1 22 5 23 9 15 48 -12 64 -11 68 16 68 20 0 25 -6 30 -37 10 -58 13 -63
37 -63 46 0 47 7 21 155 -29 171 -37 182 -123 168z"/>
<path d="M2702 4513 c-18 -86 -31 -157 -29 -159 1 -1 16 -5 34 -8 l32 -7 12
61 12 62 42 -6 c59 -9 73 -1 90 57 21 72 19 104 -7 121 -21 13 -112 36 -142
36 -9 0 -23 -51 -44 -157z"/>
<path d="M2972 4518 c-62 -173 -76 -217 -70 -223 3 -3 18 -7 33 -8 28 -2 30 2
82 147 30 82 52 150 50 152 -2 2 -17 7 -34 10 -30 6 -31 6 -61 -78z"/>
<path d="M1886 4567 c-28 -9 -28 -10 -21 -65 4 -30 9 -62 12 -71 2 -9 -17 7
-44 36 -48 51 -48 52 -76 37 l-29 -16 79 -81 c54 -56 86 -97 98 -129 10 -27
22 -48 27 -48 8 0 46 17 56 25 1 1 -8 24 -20 51 -12 27 -29 98 -37 160 l-16
111 -29 -10z"/>
<path d="M3093 4401 c-40 -76 -73 -141 -73 -144 0 -4 13 -13 28 -21 l28 -15
33 60 c28 52 35 58 52 49 18 -10 18 -13 -11 -64 -17 -29 -30 -56 -30 -59 0 -4
13 -13 29 -22 l30 -15 31 58 c17 31 32 66 33 77 1 11 10 26 21 34 24 18 55 88
49 112 -5 16 -118 89 -140 89 -4 0 -41 -62 -80 -139z"/>
<path d="M1633 4431 c-20 -17 -21 -21 -9 -62 34 -116 28 -127 -28 -49 -20 28
-39 50 -43 50 -5 -1 -18 -9 -31 -20 l-22 -18 92 -129 c50 -70 93 -130 95 -132
4 -7 53 29 53 39 0 6 -13 29 -30 52 -50 69 -37 77 42 24 52 -36 69 -36 96 -3
10 12 0 22 -54 58 -89 58 -89 58 -109 139 -9 38 -20 70 -24 70 -3 -1 -16 -9
-28 -19z"/>
<path d="M3315 4263 l-96 -118 28 -22 28 -23 37 43 c34 39 38 41 53 25 16 -15
15 -19 -16 -58 l-34 -42 24 -19 c13 -10 26 -19 30 -19 11 0 179 213 181 230 1
8 2 22 1 31 -1 23 -89 89 -117 89 -17 0 -47 -30 -119 -117z"/>
<path d="M1372 4217 l-52 -52 113 -113 c62 -61 117 -112 122 -112 5 0 31 21
57 47 l48 47 -22 23 -22 23 -28 -27 -28 -27 -27 27 -27 27 27 28 27 29 -20 18
c-20 18 -21 18 -48 -8 l-28 -27 -22 23 c-27 29 -27 35 0 64 22 23 22 24 2 43
-20 20 -20 20 -72 -33z"/>
<path d="M2390 4259 c-155 -11 -306 -57 -455 -138 -106 -57 -178 -112 -276
-211 -311 -315 -418 -765 -283 -1192 132 -417 503 -737 937 -808 108 -17 317
-12 430 11 480 97 853 486 932 969 60 376 -63 758 -331 1026 -258 257 -576
372 -954 343z m335 -84 c328 -63 627 -294 779 -602 71 -143 104 -277 113 -453
25 -535 -356 -1021 -887 -1130 -146 -30 -370 -25 -510 13 -371 98 -679 396
-784 759 -171 592 157 1204 744 1386 60 19 152 37 240 46 56 6 229 -5 305 -19z"/>
<path d="M2335 3723 c-77 -31 -252 -100 -390 -153 -137 -54 -250 -101 -252
-106 -1 -5 83 -42 187 -83 105 -41 190 -77 190 -80 0 -3 -10 -34 -21 -67 -12
-34 -19 -69 -16 -77 7 -19 136 -103 207 -135 230 -102 473 -75 677 74 29 22
55 46 58 55 3 8 -3 40 -13 70 -11 30 -21 60 -23 68 -3 10 26 27 96 57 136 58
135 58 135 -16 0 -35 -4 -60 -10 -60 -21 0 -60 -49 -60 -76 0 -14 10 -39 21
-56 21 -28 21 -35 11 -112 -7 -44 -13 -99 -14 -121 l-3 -40 70 0 70 0 -1 61
c0 34 -7 89 -14 123 -13 60 -12 61 14 87 39 39 35 77 -14 125 -36 36 -39 42
-36 86 2 27 4 52 5 56 0 4 26 19 57 33 31 14 55 26 53 28 -16 14 -800 316
-819 315 -14 0 -88 -25 -165 -56z"/>
<path d="M1926 3134 c-9 -8 -16 -20 -16 -26 0 -19 41 -68 85 -99 25 -18 45
-38 45 -45 0 -7 -11 -25 -24 -41 -44 -53 -60 -95 -60 -163 0 -114 53 -198 156
-249 65 -33 133 -40 211 -22 36 9 38 8 94 -50 31 -32 62 -59 69 -59 7 0 35 25
62 56 l50 55 83 -6 c51 -5 100 -3 124 4 145 39 240 191 201 324 -8 29 -29 73
-46 98 -16 24 -30 47 -30 50 0 3 32 30 70 58 86 64 97 81 70 113 l-19 23 -35
-20 c-19 -11 -76 -48 -126 -82 -157 -106 -337 -156 -483 -133 -148 22 -249 69
-372 174 -71 60 -85 65 -109 40z m353 -259 c34 -17 81 -70 81 -91 0 -11 -28
-14 -155 -14 -170 0 -167 -2 -124 61 38 54 137 76 198 44z m541 -3 c31 -15 80
-72 80 -93 0 -5 -70 -9 -155 -9 -85 0 -155 4 -155 9 0 4 10 23 23 41 44 66
135 89 207 52z m-663 -202 c14 -11 38 -20 53 -20 15 0 39 9 53 20 28 22 97 28
97 8 0 -7 -9 -27 -19 -44 -37 -60 -141 -86 -208 -51 -29 16 -83 80 -83 99 0
17 82 8 107 -12z m540 0 c14 -11 38 -20 53 -20 15 0 39 9 53 20 27 22 97 28
97 9 0 -7 -9 -26 -20 -44 -40 -64 -144 -88 -211 -49 -32 19 -79 76 -79 95 0
18 82 9 107 -11z"/>
<path d="M3625 4168 c-47 -27 -214 -181 -208 -192 28 -50 29 -50 140 45 85 73
107 88 119 78 8 -6 14 -15 14 -19 0 -5 -47 -48 -105 -96 l-105 -88 22 -23 c12
-13 24 -23 28 -23 15 0 219 182 225 201 11 33 -65 130 -100 129 -5 0 -19 -6
-30 -12z"/>
<path d="M1218 4035 c-21 -29 -38 -58 -38 -63 0 -7 199 -157 246 -185 9 -5 26
11 53 49 23 32 41 60 41 63 0 4 -10 12 -21 19 -19 12 -24 10 -48 -17 l-26 -31
-29 24 -29 24 22 28 22 28 -22 17 c-23 17 -27 15 -65 -39 -1 -2 -16 6 -33 19
l-30 22 20 29 c20 28 20 30 4 49 -10 10 -21 19 -24 19 -3 -1 -23 -25 -43 -55z"/>
<path d="M3796 3967 c-15 -11 -17 -17 -7 -35 13 -24 23 -16 -125 -103 l-92
-55 14 -27 c8 -15 19 -27 24 -27 4 0 57 29 117 64 107 64 108 64 124 44 13
-17 19 -19 37 -9 12 7 22 15 22 18 0 13 -81 143 -89 143 -4 0 -15 -6 -25 -13z"/>
<path d="M1090 3838 c-31 -51 -43 -94 -31 -115 14 -27 244 -137 269 -129 21 7
72 97 72 126 0 9 -8 24 -17 32 -17 15 -117 68 -127 68 -3 0 -15 -18 -26 -40
l-20 -39 21 -12 c16 -8 23 -8 29 1 8 13 80 -17 80 -34 -1 -39 -18 -37 -121 14
-57 29 -105 54 -107 55 -2 2 1 13 8 24 9 18 14 19 31 10 23 -12 22 -13 39 20
11 21 10 26 -6 38 -33 24 -72 16 -94 -19z"/>
<path d="M1157 2553 c-69 -29 -114 -55 -124 -70 -14 -21 -13 -28 7 -79 32 -78
51 -85 140 -49 38 15 70 30 70 31 0 2 -7 22 -16 44 -12 28 -21 39 -31 36 -8
-3 -19 -6 -24 -6 -5 0 -9 -9 -9 -19 0 -26 -68 -51 -81 -30 -5 8 -7 18 -6 24 2
5 50 30 107 53 99 42 105 43 117 26 12 -16 11 -21 -9 -35 -19 -15 -21 -20 -10
-43 14 -31 22 -32 56 -5 31 24 32 49 5 109 -34 75 -44 76 -192 13z"/>
<path d="M3658 2488 c-9 -13 -27 -46 -41 -75 l-26 -51 23 -16 c23 -14 25 -14
39 7 l15 22 116 -60 c113 -59 116 -59 130 -40 9 11 16 25 16 32 0 6 -52 39
-115 73 -108 57 -115 62 -104 82 9 18 8 24 -7 35 -24 18 -29 17 -46 -9z"/>
<path d="M1279 2313 c-74 -48 -135 -88 -137 -89 -4 -2 72 -124 79 -124 3 0 14
7 25 15 18 14 19 15 1 46 -18 33 -18 33 5 51 31 24 39 23 63 -8 19 -24 23 -25
43 -13 l21 13 -20 32 -19 32 32 20 33 21 18 -30 c21 -32 38 -37 57 -14 10 12
6 25 -27 75 l-39 60 -135 -87z"/>
<path d="M3557 2301 c-23 -9 -87 -89 -87 -110 0 -9 4 -21 8 -28 9 -15 223
-183 233 -183 6 0 39 44 39 52 0 2 -47 39 -105 83 -57 44 -105 85 -105 91 0 6
6 16 13 22 9 7 41 -13 121 -76 l108 -85 19 24 c10 13 19 27 19 30 0 9 -210
174 -230 181 -8 3 -23 2 -33 -1z"/>
<path d="M1410 2124 c-63 -58 -115 -109 -115 -113 0 -4 20 -30 45 -58 l46 -51
23 20 24 19 -27 27 -26 28 28 27 28 27 24 -25 c18 -19 27 -22 41 -14 25 13 24
27 -2 55 l-21 23 28 25 29 25 28 -27 c27 -26 28 -26 47 -7 19 20 19 21 -31 73
-28 28 -51 52 -52 52 -1 -1 -54 -48 -117 -106z"/>
<path d="M3337 2074 c-77 -60 -76 -68 39 -202 112 -129 100 -120 128 -93 l25
24 -34 42 c-34 41 -34 42 -16 59 18 16 20 15 53 -25 l35 -42 26 19 c15 10 26
21 27 24 0 7 -157 192 -182 213 -30 25 -49 21 -101 -19z"/>
<path d="M1566 1953 l-97 -128 27 -22 27 -21 40 49 c22 28 43 47 48 42 5 -5
-1 -37 -11 -72 l-20 -63 22 -19 c13 -10 26 -18 30 -19 4 0 20 40 34 88 l26 88
64 39 c67 41 71 50 38 71 -17 11 -27 8 -81 -26 -34 -22 -64 -36 -67 -32 -2 4
14 32 37 61 l41 53 -24 19 c-14 10 -28 19 -31 19 -3 0 -50 -57 -103 -127z"/>
<path d="M1846 1933 c-2 -10 -10 -58 -16 -108 -8 -54 -22 -109 -36 -137 -30
-60 -30 -64 5 -82 l28 -15 23 48 c13 29 55 81 101 127 44 43 79 81 79 85 0 3
-12 11 -27 18 -26 12 -30 10 -71 -33 -24 -25 -45 -46 -46 -46 -3 0 3 35 19
106 3 14 -4 25 -25 37 -27 16 -29 16 -34 0z"/>
<path d="M3113 1917 c-29 -17 -53 -34 -53 -38 0 -13 153 -279 160 -279 4 0 18
8 31 19 l23 18 -32 56 c-31 54 -31 57 -13 67 17 9 24 3 51 -45 17 -30 33 -55
35 -55 13 0 55 25 55 32 0 16 -63 120 -76 125 -8 3 -14 15 -14 27 0 11 -10 39
-23 61 -30 53 -70 57 -144 12z"/>
<path d="M2958 1848 c-16 -5 -28 -15 -28 -21 0 -7 24 -75 53 -152 50 -130 55
-140 77 -137 14 1 29 7 33 11 8 8 -78 259 -101 297 -5 8 -16 8 -34 2z"/>
<path d="M2212 1783 c-17 -14 -26 -46 -46 -158 -27 -147 -26 -155 21 -155 16
0 23 8 28 33 12 61 16 67 41 67 23 0 24 -2 18 -42 -12 -71 -11 -73 23 -76 37
-4 33 -13 63 161 21 121 21 129 5 147 -9 10 -30 21 -46 24 -16 3 -42 8 -57 11
-19 4 -36 0 -50 -12z"/>
<path d="M2750 1788 c-25 -5 -48 -13 -52 -16 -8 -9 55 -313 65 -312 4 0 19 0
33 0 26 0 26 1 20 50 -4 28 -9 57 -12 65 -6 15 0 19 48 29 15 4 34 16 43 29
12 19 12 30 1 80 -7 31 -19 64 -26 72 -14 17 -53 18 -120 3z"/>
<path d="M2467 1752 c-12 -13 -17 -37 -17 -80 0 -77 20 -102 80 -102 l40 0 0
-40 c0 -36 -2 -40 -25 -40 -18 0 -25 5 -25 20 0 16 -7 20 -35 20 -38 0 -42 -9
-24 -57 14 -37 25 -43 87 -43 78 0 95 21 90 111 -2 38 -9 74 -15 80 -6 6 -32
14 -57 16 -44 5 -46 7 -46 38 0 39 29 58 37 25 4 -15 14 -20 39 -20 31 0 34 3
34 28 0 44 -27 62 -92 62 -40 0 -59 -5 -71 -18z"/>
<path d="M2530 858 c0 -56 -3 -69 -12 -60 -29 29 -128 -4 -128 -43 0 -7 -15 2
-34 21 -38 38 -77 44 -125 19 -59 -30 -64 -117 -9 -158 46 -34 153 -17 146 23
-3 11 -17 15 -57 15 -34 0 -56 5 -58 13 -4 9 13 12 60 12 55 0 67 -3 71 -18
10 -30 50 -62 77 -62 13 0 50 0 82 0 l57 0 0 155 0 155 -35 0 -35 0 0 -72z"/>
<path d="M3030 858 c0 -56 -3 -69 -12 -60 -20 20 -74 14 -103 -11 -17 -14 -28
-36 -32 -63 -4 -35 -1 -46 23 -73 18 -19 38 -31 54 -31 14 0 51 0 83 0 l57 0
0 155 0 155 -35 0 -35 0 0 -72z"/>
<path d="M580 782 c-70 -175 -68 -162 -27 -162 30 0 37 4 46 30 10 29 12 30
70 30 58 0 60 -1 66 -30 7 -30 7 -30 76 -30 l69 0 0 150 0 150 -35 0 -35 0 0
-137 -1 -138 -56 138 c-54 135 -55 137 -87 137 -31 0 -32 -2 -86 -138z"/>
<path d="M1050 770 l0 -150 30 0 c30 0 30 1 30 55 l0 55 35 0 c75 0 125 54
110 120 -10 47 -55 70 -137 70 l-68 0 0 -150z"/>
<path d="M2700 770 l0 -150 91 0 90 0 -3 28 c-3 25 -7 27 -55 30 -51 3 -53 4
-53 33 0 28 1 29 50 29 49 0 50 1 50 30 0 29 -1 30 -50 30 -49 0 -50 1 -50 30
0 30 0 30 56 30 54 0 55 0 52 28 -3 27 -3 27 -90 30 l-88 3 0 -151z"/>
<path d="M3740 840 c0 -16 -4 -30 -10 -30 -5 0 -10 -11 -10 -25 0 -14 5 -25
10 -25 6 0 10 -22 10 -49 0 -63 24 -95 69 -93 41 1 44 4 36 35 -5 17 -12 24
-21 20 -11 -4 -14 5 -14 41 0 39 3 46 20 46 14 0 20 7 20 21 0 12 -8 23 -20
26 -14 4 -20 14 -20 34 0 26 -3 29 -35 29 -32 0 -35 -2 -35 -30z"/>
<path d="M1308 794 c-76 -41 -58 -149 27 -173 72 -20 145 27 145 93 -1 76 -97
121 -172 80z"/>
<path d="M1470 802 c0 -5 21 -49 46 -96 37 -70 50 -86 69 -86 17 0 27 10 43
48 l20 47 21 -47 c34 -75 55 -67 114 41 26 49 47 92 47 95 0 3 -15 6 -33 6
-31 0 -36 -5 -58 -51 l-24 -52 -23 52 c-31 69 -55 69 -87 -1 l-24 -51 -23 49
c-20 42 -28 49 -56 52 -17 2 -32 -1 -32 -6z"/>
<path d="M1874 800 c-50 -20 -70 -93 -38 -139 36 -50 128 -59 164 -16 19 22 5
30 -52 30 -32 0 -53 5 -55 13 -4 9 13 12 61 12 64 0 66 1 66 26 0 38 -50 84
-92 83 -18 0 -43 -4 -54 -9z"/>
<path d="M2037 803 c-4 -3 -7 -46 -7 -95 l0 -88 35 0 35 0 0 60 c0 62 14 82
51 73 19 -5 44 30 34 47 -8 13 -41 13 -65 0 -13 -7 -21 -7 -25 0 -7 11 -48 14
-58 3z"/>
<path d="M3120 741 c0 -102 28 -128 133 -123 50 3 67 33 67 117 l0 75 -30 0
c-30 0 -30 -1 -30 -54 0 -70 -7 -86 -36 -86 -30 0 -44 32 -44 96 0 42 -1 44
-30 44 l-30 0 0 -69z"/>
<path d="M3364 776 c-67 -67 -23 -159 77 -158 49 1 53 4 44 31 -4 15 -15 21
-34 21 -33 0 -51 16 -51 47 0 26 32 47 60 38 23 -7 40 33 19 46 -32 20 -80 10
-115 -25z"/>
<path d="M3525 787 c-17 -14 -28 -36 -32 -63 -4 -35 -1 -46 23 -73 18 -19 38
-31 54 -31 14 0 51 0 83 0 l58 0 -3 92 c-3 88 -4 93 -26 96 -13 2 -29 -2 -37
-8 -9 -7 -15 -8 -20 0 -11 18 -73 11 -100 -13z"/>
<path d="M3994 800 c-57 -23 -73 -113 -28 -155 29 -27 63 -34 113 -23 45 9 70
36 78 81 5 32 1 41 -30 72 -28 28 -42 35 -73 34 -22 0 -49 -4 -60 -9z"/>
<path d="M4170 715 l0 -95 30 0 c30 0 30 1 30 53 0 60 17 91 46 85 16 -3 19
-13 22 -71 l3 -67 34 0 35 0 0 70 c0 62 -3 74 -25 95 -25 26 -63 32 -96 15
-13 -7 -19 -7 -19 0 0 5 -13 10 -30 10 l-30 0 0 -95z"/>
</g>
</svg>
