<svg xmlns="http://www.w3.org/2000/svg" viewBox="0 0 80.09 86.65"><defs><style>.cls-1{fill:#2587d0;}</style></defs><g id="Layer_2" data-name="Layer 2"><g id="Layer_1-2" data-name="Layer 1"><path class="cls-1" d="M77.12,67.07a3,3,0,0,0-1,.16L63.36,44.05a1.21,1.21,0,0,0,.22-.7,1.15,1.15,0,0,0-.23-.7l2.94-5.31.44-.79h0l2.83-5.12a2.94,2.94,0,0,0,.94.15,3,3,0,1,0-2.92-3.51H55.3a1.22,1.22,0,0,0-1.09-.68h-.06L41.93,5.27A3,3,0,1,0,37.08,3a2.94,2.94,0,0,0,1.09,2.3L25.94,27.4h-.05a1.21,1.21,0,0,0-1.09.67H12.54a3,3,0,1,0-2.92,3.51,3.1,3.1,0,0,0,.92-.14l6.2,11.21a1.2,1.2,0,0,0-.23.7,1.13,1.13,0,0,0,.23.7L3.93,67.23a3,3,0,0,0-1-.16,3,3,0,1,0,2.92,3.52H21.51A1.21,1.21,0,0,0,23.8,70a1.2,1.2,0,0,0-.23-.7l3.9-7.06h.12l7.12,12.88,3.46,6.21a3,3,0,1,0,3.77,0L52.5,62.28h.13l3.91,7.08a1.18,1.18,0,0,0-.22.69,1.21,1.21,0,0,0,2.3.54H74.2a3,3,0,1,0,2.92-3.52ZM40.05,80.7a3,3,0,0,0-.95.16l-3.46-6.22L28.52,61.77a1.16,1.16,0,0,0,.22-.69,1.21,1.21,0,1,0-2.42,0,1.18,1.18,0,0,0,.22.69l-3.9,7.06h-.05a1.22,1.22,0,0,0-1.09.69H5.9a3,3,0,0,0-1-1.78L17.67,44.56h0a1.21,1.21,0,1,0,0-2.42h0l-6.2-11.21a3,3,0,0,0,1.07-1.8H24.8a1.21,1.21,0,0,0,2.3-.52,1.23,1.23,0,0,0-.23-.71L39.1,5.79a3.08,3.08,0,0,0,1.9,0L53.22,27.9a1.21,1.21,0,1,0,2.08,1.23H67.58a3,3,0,0,0,1,1.79L62.42,42.14h-.05a1.21,1.21,0,0,0,0,2.42h.06L75.24,67.74a2.93,2.93,0,0,0-1,1.78H58.62a1.22,1.22,0,0,0-1.09-.68h-.06l-3.92-7.07a1.21,1.21,0,1,0-2.2-.69,1.18,1.18,0,0,0,.22.69L41,80.87A2.81,2.81,0,0,0,40.05,80.7Z"/><rect class="cls-1" x="23" y="48.05" height="1.6" transform="translate(-27.75 30.42) rotate(-44.82)"/><polygon class="cls-1" points="25.52 53.41 17.44 68.02 7.37 68.02 20.48 44.3 21.55 46.22 22.61 48.15 23.39 49.55 24.45 51.48 25.52 53.41"/><path class="cls-1" d="M57.48,40.44l-.07.13h.15Z"/><polygon class="cls-1" points="72.72 68.02 62.65 68.02 54.58 53.41 55.64 51.48 57.48 48.15 58.55 46.22 59.62 44.29 72.72 68.02"/><polygon class="cls-1" points="52.31 31.09 27.78 31.09 40.05 8.89 52.31 31.09"/><polygon class="cls-1" points="40.05 63.39 48.49 48.12 36.74 48.12 36.74 41.51 60.09 41.51 40.05 77.75 39.12 76.09 14.76 32.02 65.33 32.02 61.68 38.63 26.36 38.63 40.05 63.39"/></g></g></svg>