<svg xmlns="http://www.w3.org/2000/svg" viewBox="0 0 381.74 143.26"><defs><style>.cls-1,.cls-2,.cls-5{fill:#2587d0;}.cls-2{font-size:32px;font-family:TrebuchetMS-Bold, Trebuchet MS;font-weight:700;}.cls-3{letter-spacing:-0.02em;}.cls-4{letter-spacing:-0.06em;}.cls-5{font-size:22px;font-family:TrebuchetMS, Trebuchet MS;letter-spacing:-0.1em;}.cls-6{letter-spacing:0.02em;}.cls-7{letter-spacing:-0.04em;}.cls-8,.cls-9{letter-spacing:0.02em;}.cls-9{font-family:Tahoma;}.cls-10{letter-spacing:-0.03em;}.cls-11{letter-spacing:0em;}.cls-12{letter-spacing:-0.11em;}.cls-13{fill:none;stroke:#2587d0;stroke-miterlimit:10;}</style></defs><g id="Layer_2" data-name="Layer 2"><g id="Layer_1-2" data-name="Layer 1"><path class="cls-1" d="M127.52,110.89a4.81,4.81,0,0,0-1.58.27L104.76,72.83a2,2,0,0,0,.36-1.15,2,2,0,0,0-.37-1.16l4.86-8.78.72-1.3h0L115,52a4.77,4.77,0,0,0,1.56.26,4.92,4.92,0,1,0-4.83-5.81H91.43a2,2,0,0,0-1.79-1.13h-.11L69.32,8.72a4.92,4.92,0,1,0-6.21,0L42.89,45.3H42.8A2,2,0,0,0,41,46.41H20.73a4.91,4.91,0,1,0-4.83,5.81A5.1,5.1,0,0,0,17.43,52L27.68,70.51a2,2,0,0,0-.38,1.17,2,2,0,0,0,.37,1.16L6.49,111.16a4.81,4.81,0,0,0-1.58-.27,4.92,4.92,0,1,0,4.83,5.82H35.56a2,2,0,0,0,3.79-.9,2,2,0,0,0-.38-1.17L45.42,103h.2l11.77,21.29,5.72,10.27a4.92,4.92,0,1,0,6.23,0L86.8,103H87l6.46,11.7a2,2,0,0,0,1.64,3.15,2,2,0,0,0,1.8-1.12h25.77a4.91,4.91,0,1,0,4.83-5.82ZM66.21,133.44a5,5,0,0,0-1.56.25l-5.73-10.28L47.16,102.14a2,2,0,1,0-3.28,0l-6.45,11.68h-.08A2,2,0,0,0,35.54,115H9.75A4.9,4.9,0,0,0,8,112L29.21,73.68h.09a2,2,0,0,0,0-4h-.08L19,51.14a4.91,4.91,0,0,0,1.77-3H41a2,2,0,0,0,3.8-.86,2,2,0,0,0-.37-1.16L64.65,9.57a4.84,4.84,0,0,0,3.13,0L88,46.14a2,2,0,0,0-.37,1.14,2,2,0,0,0,2,2,2,2,0,0,0,1.79-1.13h20.31a4.94,4.94,0,0,0,1.73,3L103.21,69.68h-.09a2,2,0,0,0,0,4h.1L124.4,112a4.9,4.9,0,0,0-1.72,2.94H96.92a2,2,0,0,0-1.8-1.13H95l-6.46-11.7a2.06,2.06,0,0,0,.36-1.14,2,2,0,1,0-3.65,1.14L67.81,133.71A4.72,4.72,0,0,0,66.21,133.44Z"/><rect class="cls-1" x="38.02" y="79.45" height="2.65" transform="translate(-45.88 50.29) rotate(-44.82)"/><polygon class="cls-1" points="42.19 88.31 28.84 112.46 12.19 112.46 33.86 73.24 35.62 76.43 37.38 79.61 38.66 81.93 40.43 85.12 42.19 88.31"/><path class="cls-1" d="M95.05,66.86l-.13.22h.25Z"/><polygon class="cls-1" points="120.24 112.46 103.59 112.46 90.24 88.3 92 85.12 95.04 79.61 96.8 76.43 98.57 73.24 120.24 112.46"/><polygon class="cls-1" points="86.5 51.4 45.93 51.4 66.22 14.7 86.5 51.4"/><polygon class="cls-1" points="66.21 104.82 80.18 79.55 60.75 79.55 60.75 68.63 99.35 68.63 66.21 128.56 64.68 125.81 24.41 52.94 108.02 52.94 101.98 63.87 43.58 63.87 66.21 104.82"/><text class="cls-2" transform="translate(132.43 71.18)">GEEK<tspan class="cls-3" x="77.64" y="0">Y</tspan><tspan class="cls-4" x="96.69" y="0"> </tspan><tspan x="104.56" y="0">ASPIRAN</tspan><tspan class="cls-3" x="230.05" y="0">T</tspan></text><text class="cls-5" transform="translate(132.43 100.34) scale(0.99 1)">Y<tspan class="cls-6" x="10.4" y="0">our</tspan><tspan class="cls-7" x="43.9" y="0"> </tspan><tspan class="cls-8" x="49.68" y="0">A</tspan><tspan class="cls-9" x="63.03" y="0">I</tspan><tspan class="cls-6" x="71.62" y="0">-</tspan><tspan class="cls-10" x="80.07" y="0">P</tspan><tspan class="cls-8" x="91.68" y="0">owered</tspan><tspan class="cls-11" x="166.9" y="0"> </tspan><tspan class="cls-12" x="173.51" y="0">T</tspan><tspan class="cls-8" x="183.81" y="0">utor</tspan></text><line class="cls-13" x1="132.43" y1="77.84" x2="245.09" y2="77.84"/></g></g></svg>